<?xml version="1.0"?>
<svg xmlns="http://www.w3.org/2000/svg" xmlns:xlink="http://www.w3.org/1999/xlink" version="1.1" id="Capa_1" x="0px" y="0px" viewBox="0 0 475.8 475.8" style="enable-background:new 0 0 475.8 475.8;" xml:space="preserve" width="30px" height="30px" class=""><g><path d="M339.813,243.841v-80.906c0-45.004-36.613-81.618-81.618-81.618h-40.358V69.211h19.605c11.608,0,21.053-9.444,21.053-21.053  s-9.444-21.053-21.053-21.053h-19.605v-6.053C217.836,9.444,208.392,0,196.783,0c-11.608,0-21.053,9.444-21.053,21.053v6.053  h-12.105v-6.053c0-4.142-3.357-7.5-7.5-7.5h-27.106c-4.143,0-7.5,3.358-7.5,7.5v54.212c0,4.142,3.357,7.5,7.5,7.5h27.106  c4.143,0,7.5-3.358,7.5-7.5v-6.053h12.105v28.187c-38.845,9.479-67.765,44.568-67.765,86.29v203.294  c0,48.974,39.844,88.817,88.818,88.817c48.974,0,88.817-39.843,88.817-88.817V183.688c0-41.722-28.92-76.811-67.765-86.29v-1.081  h40.358c36.733,0,66.618,29.885,66.618,66.618v80.906c-15.996,3.453-28.022,17.704-28.022,34.718  c0,19.587,15.936,35.522,35.522,35.522s35.521-15.935,35.521-35.522C367.834,261.545,355.809,247.293,339.813,243.841z   M237.442,42.106c3.338,0,6.053,2.715,6.053,6.053s-2.715,6.053-6.053,6.053h-19.605V42.106H237.442z M148.625,67.765h-12.106  V28.553h12.106v6.053v27.105V67.765z M163.625,54.211V42.106h12.105v12.105H163.625z M190.73,94.871V61.711V34.606V21.053  c0-3.337,2.715-6.053,6.053-6.053s6.054,2.715,6.054,6.053v13.553v27.105v33.159H190.73z M270.601,183.688v203.294  c0,40.703-33.114,73.817-73.817,73.817h-0.001c-40.703,0-73.817-33.114-73.817-73.817v-46.712h125.17c4.143,0,7.5-3.358,7.5-7.5  s-3.357-7.5-7.5-7.5h-125.17V245.4h125.17c4.143,0,7.5-3.358,7.5-7.5s-3.357-7.5-7.5-7.5h-125.17v-46.712  c0-40.703,33.115-73.817,73.818-73.817S270.601,142.985,270.601,183.688z M332.313,299.081c-11.316,0-20.522-9.206-20.522-20.522  s9.206-20.522,20.522-20.522c11.315,0,20.521,9.206,20.521,20.522S343.628,299.081,332.313,299.081z" data-original="#000000" class="active-path" data-old_color="#000000" fill="#FFFFFF"/></g> </svg>
